<?xml version="1.0" encoding="utf-8"?>
<!-- Generator: Adobe Illustrator 16.0.0, SVG Export Plug-In . SVG Version: 6.00 Build 0)  -->
<!DOCTYPE svg PUBLIC "-//W3C//DTD SVG 1.1//EN" "http://www.w3.org/Graphics/SVG/1.1/DTD/svg11.dtd">
<svg version="1.1" id="Shape_39_1_" xmlns="http://www.w3.org/2000/svg" xmlns:xlink="http://www.w3.org/1999/xlink" x="0px"
	 y="0px" width="210px" height="62px" viewBox="0 0 210 62" style="enable-background:new 0 0 210 62;" xml:space="preserve">
<style type="text/css">
<![CDATA[
	.st0{fill-rule:evenodd;clip-rule:evenodd;fill:#0860A8;}
]]>
</style>
<g id="Shape_39">
	<g>
		<path class="st0" d="M40.4,22.8c0-2.1,1.4-3.6,3.5-3.6h3.2v-7.9h-2.5c-3.6,0.1-5,2-5.1,2.7c0,0.1-0.1,0.1-0.1,0.1
			c-0.1,0-0.1-0.1-0.1-0.1v-2.8h-8v29.3h9.2V22.8z M84.6,27.2l8.6,13.4h11.8L94.8,25.2l9-12.7H92.2l-7.6,12.2v-20h-9.2v35.9h9.2
			V27.2z M60.8,11.3H49.6v7.9h10.6c1.6,0,2.4,0.8,2.4,2.3v0.8h-5.8c-7.5,0-9.1,4.1-9.1,7.6v2.3c0,5.1,3.4,8.2,8.9,8.3
			c0.3,0,1.8,0,1.8,0c3.1,0,4.4-1.7,4.5-2.3c0-0.1,0.1-0.1,0.1-0.1c0.1,0,0.1,0.1,0.1,0.1v2.3h8.5V20.8
			C71.5,14.8,67.5,11.3,60.8,11.3z M62.6,30.9C62.6,30.9,62.5,30.9,62.6,30.9c0,1.1,0.1,2.3-2.7,2.3c0,0-2,0-2,0v0
			c-1.2,0-1.6-0.5-1.6-1.4v-1.2c0-0.7,0.5-1.3,1.6-1.3h4.6V30.9z M125.6,40.6h9.2V12.5h-9.2V40.6z M26.5,26.9
			c1.9-2.2,2.8-5.1,2.8-8.9c0-4-1.3-7.3-3.7-9.8C23,5.9,19.8,4.7,16,4.7H0v35.9h10v-9.2h6C20.5,31.4,24.1,29.9,26.5,26.9z M10,13.7
			h6c0.9,0,1.7,0.3,2.3,0.8c1,1,1,2.2,1,3.6c0,1.7-0.3,2.8-0.8,3.5c-0.5,0.6-1.4,0.9-2.6,0.9h-6V13.7z M130.2,10.1c2.7,0,5-2.3,5-5
			c0-1.1-0.3-2-0.9-2.8l-6.9,7C128.2,9.7,129.2,10.1,130.2,10.1z M167.5,31c0,6.1,3.9,9.6,10.7,9.6h11.9v-7.8h-11.3
			c-1.6,0-2.4-0.8-2.4-2.3v-0.7h8.6c4.1,0,6.4-2.1,6.4-6v-4.3c0-5.2-3.5-8.4-9.1-8.4h-6c-5.3,0-8.8,3.4-8.8,8.4V31z M176.5,20.2
			c0-1,0.4-1.3,1.4-1.3h3.4c1.3,0,1.5,0.5,1.5,1.3v2.5c0,0.3-0.1,0.4-0.4,0.4h-5.9V20.2z M133,0.9c-0.8-0.6-1.8-0.9-2.8-0.9
			c-2.7,0-5,2.3-5,5c0,1.1,0.3,2,0.9,2.8L133,0.9z M148.4,27.2l8.6,13.4h11.8l-10.3-15.4l9-12.7H156l-7.6,12.2v-20h-9.2v35.9h9.2
			V27.2z M122.1,32c-2.9,0-3.7,0.1-5.5,0.1c-1.9,0-2.8-1.4-2.8-3.1v-7.7h7.7v-8.7h-7.7V4.7h-9.2v24.6c0,7.2,2.3,11.4,8.6,11.4
			c4,0,5.3,0,8.9-0.2V32z M207.5,11.3c-3.5,0.1-5,2-5.1,2.7c0,0.1-0.1,0.1-0.1,0.1c-0.1,0-0.1-0.1-0.1-0.1v-2.8h-8v29.3h9.2V22.8
			c0-2.1,1.4-3.6,3.5-3.6h3.2v-7.9H207.5z M18.6,53.4L18.6,53.4c0.6-0.3,1-1.1,1-1.7V51c0-1.9-1.3-2.6-3.1-2.6h-4.7v10.2h5.1
			c1.8,0,3.1-0.9,3.1-2.8v-0.4C20.1,54.4,19.5,53.7,18.6,53.4z M14.6,50.6h1.6c0.5,0,0.8,0.2,0.8,0.7v0.4c0,0.5-0.3,0.7-0.7,0.7
			h-1.6V50.6z M17.3,55.6c0,0.6-0.3,0.7-0.8,0.7h-1.9v-1.9h2c0.4,0,0.7,0.1,0.7,0.7V55.6z M25.3,52.7c-0.4,0.6-0.7,1.3-1,2h-0.1
			c0.1-0.7,0.2-1.3,0.2-2v-4.3h-2.8v10.2h2.9l2.6-4.5c0.4-0.6,0.7-1.2,0.9-1.9h0.1c-0.2,0.7-0.2,1.3-0.2,1.9v4.5h2.8V48.4h-2.9
			L25.3,52.7z M48.1,48.4H44v2.4h3.9c0.6,0,1.1,0.3,1.1,0.8v0.8h-2.3c-2.6,0-3.2,1.4-3.2,2.7v0.7c0,1.8,1.2,2.9,3.1,2.9
			c0.1,0,0.6,0,0.6,0c1.1,0,1.5-0.6,1.6-0.8c0,0,0,0,0,0c0,0,0,0,0,0v0.8h2.9v-6.9C51.8,49.6,50.4,48.4,48.1,48.4z M48.9,55.6
			c0,0,0.1,0.8-0.9,0.8c0,0-1,0-1,0c-0.5,0-0.7-0.2-0.7-0.6V55c0-0.3,0.2-0.6,0.6-0.6h2.1V55.6z M159.5,48.4h-2.2c-1.7,0-3,1-3,2.8
			v4.2c0,2.2,1.5,3.2,3.7,3.2h4.2v-2.4h-4c-0.8,0-1.1-0.4-1.1-1v-0.5h3.4c1.5,0,2.1-0.8,2.1-2v-1.6
			C162.5,49.3,161.3,48.4,159.5,48.4z M159.8,52.3c0,0.2-0.1,0.3-0.3,0.3h-2.4v-1.3c0-0.5,0.3-0.7,0.8-0.7h1.2
			c0.4,0,0.8,0.2,0.8,0.7V52.3z M170.1,52.2h-3v-3.8h-2.9v10.2h2.9v-3.9h3v3.9h2.9V48.4h-2.9V52.2z M133.6,48.4h-2.2
			c-1.7,0-3,1-3,2.8v4.2c0,2.2,1.5,3.2,3.7,3.2h4.2v-2.4h-4c-0.8,0-1.1-0.4-1.1-1v-0.5h3.4c1.5,0,2.1-0.8,2.1-2v-1.6
			C136.7,49.3,135.4,48.4,133.6,48.4z M134,52.3c0,0.2-0.1,0.3-0.3,0.3h-2.4v-1.3c0-0.5,0.3-0.7,0.8-0.7h1.2c0.4,0,0.8,0.2,0.8,0.7
			V52.3z M149.7,56.2h-2.8v-7.8H144v7.8h-2.8v-7.8h-2.8v10.2h14.1V48.4h-2.8V56.2z M38.7,52.2h-3v-3.8h-2.9v10.2h2.9v-3.9h3v3.9h2.9
			V48.4h-2.9V52.2z M178.7,52.7c-0.4,0.6-0.7,1.3-1,2h-0.1c0.1-0.7,0.2-1.3,0.2-2v-4.3h-2.8v10.2h2.9l2.6-4.5
			c0.4-0.6,0.7-1.2,0.9-1.9h0.1c-0.2,0.7-0.2,1.3-0.2,1.9v4.5h2.8V48.4h-2.9L178.7,52.7z M191.1,48.4h-2.2c-1.7,0-3,1-3,2.8v4.2
			c0,2.2,1.5,3.2,3.7,3.2h4.2v-2.4h-4c-0.8,0-1.1-0.4-1.1-1v-0.5h3.4c1.5,0,2.1-0.8,2.1-2v-1.6C194.2,49.3,192.9,48.4,191.1,48.4z
			 M191.5,52.3c0,0.2-0.1,0.3-0.3,0.3h-2.4v-1.3c0-0.5,0.3-0.7,0.8-0.7h1.2c0.4,0,0.8,0.2,0.8,0.7V52.3z M65.5,52.7
			c-0.4,0.6-0.7,1.3-1,2h-0.1c0.1-0.7,0.2-1.3,0.2-2v-4.3h-2.8v10.2h2.9l2.6-4.5c0.4-0.6,0.7-1.2,0.9-1.9h0.1
			c-0.2,0.7-0.2,1.3-0.2,1.9v4.5h2.8V48.4H68L65.5,52.7z M81.5,52.7c-0.4,0.6-0.7,1.3-1,2h-0.1c0.1-0.7,0.2-1.3,0.2-2v-4.3h-2.8
			v10.2h2.9l2.6-4.5c0.4-0.6,0.7-1.2,0.9-1.9h0.1c-0.2,0.7-0.2,1.3-0.2,1.9v4.5h2.8V48.4H84L81.5,52.7z M123.4,48.4h-5V62h2.9v-3.4
			h2.1c2.5,0,3.5-1.5,3.5-2.9v-4.2C126.9,49.8,125.8,48.4,123.4,48.4z M124,55c0,0.7-0.4,1.1-1,1.1h-1.7v-5.1h1.7c0.6,0,1,0.5,1,1
			V55z M53.8,58.6h2.9v-7.7h3.7v-2.6h-6.6V58.6z M107.8,48.4h-4.1v2.4h3.9c0.6,0,1.1,0.3,1.1,0.8v0.8h-2.3c-2.6,0-3.2,1.4-3.2,2.7
			v0.7c0,1.8,1.2,2.9,3.1,2.9c0.1,0,0.6,0,0.6,0c1.1,0,1.5-0.6,1.6-0.8c0,0,0,0,0,0c0,0,0,0,0,0v0.8h2.9v-6.9
			C111.4,49.6,110.1,48.4,107.8,48.4z M108.6,55.6c0,0,0.1,0.8-0.9,0.8c0,0-1,0-1,0c-0.5,0-0.7-0.2-0.7-0.6V55
			c0-0.3,0.2-0.6,0.6-0.6h2.1V55.6z M95.8,53.6c-0.2,0.7-0.4,1.2-0.5,2.1h-0.1c-0.1-0.8-0.3-1.4-0.5-2.1l-1.7-5.2h-3.9v10.2h2.5V54
			c0-0.9-0.1-2.2-0.3-3.1h0.1l2.5,7.6h2.6l2.5-7.6h0.1c-0.1,0.9-0.3,2.1-0.3,3.1v4.6h2.5V48.4h-3.9L95.8,53.6z"/>
	</g>
</g>
</svg>
