<?xml version="1.0" encoding="utf-8"?>
<!-- Generator: Adobe Illustrator 19.2.0, SVG Export Plug-In . SVG Version: 6.00 Build 0)  -->
<svg version="1.1" id="Layer_1" xmlns="http://www.w3.org/2000/svg" xmlns:xlink="http://www.w3.org/1999/xlink" x="0px" y="0px"
	 viewBox="0 0 103 35" style="enable-background:new 0 0 103 35;" xml:space="preserve">
<style type="text/css">
	.st0{fill:#ED111C;}
	.st1{fill:#FFFFFF;}
</style>
<g>
	<rect x="0.5" y="0.5" class="st0" width="102.2" height="23.7"/>
	<path d="M0.7,0.8h101.5v23.2H0.7V0.8z M0,24.8h103V0.1H0V24.8z"/>
	<path class="st1" d="M15.2,12.3c0.2-3.5,4-5.1,9-5.1c6,0,9.4,1.2,9.4,5.4v7.3c0,1,0.4,1.7,1.1,2.2h-5.8c-0.5-0.6-0.9-1.2-0.9-2
		c-2.3,1.7-3.7,2.3-7.1,2.3c-3.8,0-6.3-1.8-6.3-4.4c0-2.5,1.9-4,5.7-4.5c2.4-0.3,4.9-0.6,7.6-0.7c0-2-0.7-2.7-3.7-2.7
		c-2.2,0-3.5,0.7-3.7,2.1H15.2z M23.9,15.9c-2.4,0.3-3.6,0.9-3.6,2c0,1,1.2,1.7,3,1.7c3.1,0,4.7-1.1,4.7-3.3v-0.9L23.9,15.9z"/>
	<path class="st1" d="M37.9,2.2h5.6v3.6h-5.6V2.2z M37.9,7.6h5.6v14.6h-5.6V7.6z"/>
	<polygon class="st1" points="47.5,22.2 47.5,2.3 53,2.3 53,13.3 59.9,7.6 66.6,7.6 58.8,13.3 66.6,22.2 59.9,22.2 55.3,15.8 
		53,17.5 53,22.2 	"/>
	<path class="st1" d="M66.6,14.9c0-4.6,4-7.7,11-7.7c6.8,0,10.9,3.1,10.9,7.7c0,4.5-4.1,7.6-10.9,7.6C70.6,22.6,66.6,19.6,66.6,14.9
		 M72.3,14.9c0,2.4,1.4,4.6,5.2,4.6c3.6,0,5.2-2.2,5.2-4.6c0-2.5-1.7-4.7-5.2-4.7C73.8,10.3,72.3,12.4,72.3,14.9"/>
	
		<rect x="59.4" y="21.1" transform="matrix(0.9986 -5.233482e-002 5.233482e-002 0.9986 -1.346 3.8815)" class="st1" width="28" height="13.1"/>
	
		<rect x="87.3" y="20.2" transform="matrix(0.9986 -5.232956e-002 5.232956e-002 0.9986 -1.2712 4.8205)" class="st0" width="8.2" height="13"/>
	<path d="M59.5,22.3l35.3-1.8l0.6,12l-35.3,1.8L59.5,22.3z M59.6,35l36.6-1.9l-0.7-13.2l-36.6,1.9L59.6,35z"/>
	<polygon points="67.2,31.8 65.6,29.5 64.2,32 62,32.1 64.3,28 61.7,24.3 63.9,24.2 65.4,26.5 66.7,24.1 68.9,23.9 66.7,27.9 
		69.4,31.7 	"/>
	<polygon points="86.1,30.9 83.4,27 85.7,23.1 83.5,23.2 82.1,25.6 80.6,23.3 78.4,23.5 81,27.2 78.7,31.2 80.9,31.1 82.3,28.6 
		83.9,31 	"/>
	<polygon points="77.8,31.3 75.1,27.5 77.3,23.5 75.1,23.6 73.8,26 72.3,23.8 70.1,23.9 72.7,27.6 70.4,31.7 72.6,31.6 74,29 
		75.6,31.4 	"/>
	<polygon class="st1" points="93.7,28.7 91.1,28.8 90.8,22.8 88.9,22.9 89.3,30.7 93.8,30.5 	"/>
</g>
</svg>
