<?xml version="1.0" encoding="UTF-8"?>
<svg id="Layer_2" data-name="Layer 2" xmlns="http://www.w3.org/2000/svg" viewBox="0 0 188.82 28.28">
  <defs>
    <style>
      .cls-1 {
        fill: #fff;
      }

      .cls-2 {
        fill: none;
        stroke: #fff;
        stroke-miterlimit: 10;
        stroke-width: 1.33px;
      }
    </style>
  </defs>
  <g id="Layout_design" data-name="Layout design">
    <g>
      <g>
        <polygon class="cls-1" points="62 2.06 58.41 9.34 50.38 10.5 56.19 16.16 54.82 24.16 62 20.38 69.18 24.16 67.8 16.16 73.61 10.5 65.59 9.34 62 2.06"/>
        <polygon class="cls-1" points="90.8 2.06 87.21 9.34 79.18 10.5 84.99 16.16 83.62 24.16 90.8 20.38 97.98 24.16 96.61 16.16 102.42 10.5 94.39 9.34 90.8 2.06"/>
        <polygon class="cls-1" points="119.6 2.06 116.01 9.34 107.99 10.5 113.8 16.16 112.43 24.16 119.6 20.38 126.78 24.16 125.41 16.16 131.22 10.5 123.19 9.34 119.6 2.06"/>
        <polygon class="cls-1" points="148.41 2.06 144.82 9.34 136.79 10.5 142.6 16.16 141.23 24.16 148.41 20.38 155.58 24.16 154.21 16.16 160.02 10.5 152 9.34 148.41 2.06"/>
        <polygon class="cls-1" points="177.21 2.06 173.62 9.34 165.59 10.5 171.4 16.16 170.03 24.16 177.21 20.38 184.39 24.16 183.02 16.16 188.82 10.5 180.8 9.34 177.21 2.06"/>
      </g>
      <path class="cls-1" d="M0,14.14C0,6.67,6.08.6,13.54.6c3.02,0,5.87.97,8.26,2.81l-3.15,4.09c-1.47-1.13-3.24-1.74-5.11-1.74-4.62,0-8.38,3.76-8.38,8.38s3.76,8.38,8.38,8.38c3.72,0,6.89-2.44,7.98-5.8h-7.98v-5.16h13.54v2.58c0,7.47-6.08,13.54-13.54,13.54S0,21.61,0,14.14h0Z"/>
      <line class="cls-2" x1="39.27" x2="39.27" y2="28.28"/>
    </g>
  </g>
</svg>