<?xml version="1.0" encoding="UTF-8"?>
<svg id="Layer_2" data-name="Layer 2" xmlns="http://www.w3.org/2000/svg" viewBox="0 0 164.07 42.51">
  <defs>
    <style>
      .cls-1 {
        fill: #fff;
      }

      .cls-2 {
        fill: #221f20;
      }

      .cls-3 {
        fill: #8dc63f;
      }
    </style>
  </defs>
  <g id="design">
    <g>
      <g>
        <path class="cls-2" d="M65.22,24.75c-.41.5-.96.75-1.78.75h-1.8v-7.96h1.8c.82,0,1.37.26,1.78.76.45.55.51,1.32.51,3.17s-.07,2.73-.51,3.28M66.88,16.58c-.81-.81-1.96-1.17-3.23-1.17h-4.41v12.22h4.41c1.27,0,2.42-.36,3.23-1.17,1.37-1.37,1.24-3.16,1.24-4.99s.14-3.52-1.24-4.89"/>
        <path class="cls-2" d="M74.06,19.01l1.49,4.45h-3.04l1.55-4.45ZM73.06,15.41l-4.44,12.22h2.49l.74-2.16h4.34l.72,2.16h2.49l-4.46-12.22h-1.87Z"/>
        <polygon class="cls-2" points="85.49 15.41 83.25 20.34 80.96 15.41 78.37 15.41 82.05 22.61 82.05 27.63 84.41 27.63 84.41 22.61 88.09 15.41 85.49 15.41"/>
        <path class="cls-2" d="M97.68,20.88h-2.23v-3.35h2.23c1.08,0,1.77.69,1.77,1.68s-.69,1.67-1.77,1.67M97.8,15.41h-4.74v12.22h2.38v-4.6h2.35c2.52,0,4.03-1.73,4.03-3.81s-1.51-3.81-4.03-3.81"/>
        <path class="cls-2" d="M106.41,19.01l1.49,4.45h-3.04l1.54-4.45ZM105.42,15.41l-4.45,12.22h2.49l.74-2.16h4.34l.72,2.16h2.49l-4.46-12.22h-1.87Z"/>
        <rect class="cls-2" x="112.83" y="15.41" width="2.38" height="12.22"/>
        <polygon class="cls-2" points="124.61 15.41 124.61 22.89 119.77 15.41 117.64 15.41 117.64 27.63 120.03 27.63 120.03 20.13 124.87 27.63 126.99 27.63 126.99 15.41 124.61 15.41"/>
        <polygon class="cls-2" points="128.5 15.41 128.5 17.54 131.7 17.54 131.7 27.63 134.09 27.63 134.09 17.54 137.28 17.54 137.28 15.41 128.5 15.41"/>
        <rect class="cls-2" x="138.79" y="15.41" width="2.38" height="12.22"/>
        <polygon class="cls-2" points="150.56 15.41 150.56 22.89 145.73 15.41 143.6 15.41 143.6 27.63 145.98 27.63 145.98 20.13 150.82 27.63 152.95 27.63 152.95 15.41 150.56 15.41"/>
        <g>
          <path class="cls-2" d="M159.46,20.83v1.99h2.25v.46c0,.64-.15,1.18-.55,1.63-.39.43-.98.69-1.7.69-.65,0-1.18-.24-1.53-.64-.46-.51-.58-1.1-.58-3.45s.12-2.92.58-3.43c.34-.4.87-.65,1.53-.65,1.22,0,1.92.63,2.2,1.78h2.4c-.33-2.06-1.77-3.91-4.6-3.91-1.37,0-2.44.48-3.29,1.34-1.24,1.23-1.2,2.76-1.2,4.87s-.04,3.64,1.2,4.88c.86.86,1.96,1.34,3.29,1.34s2.47-.38,3.45-1.39c.86-.89,1.17-1.96,1.17-3.73v-1.78h-4.62Z"/>
          <path class="cls-2" d="M51.24,16c-.23.2-.5.4-.78.6-.28.2-.58.39-.9.56-.32.18-.64.34-.96.47v1.4h2.26v8.51h2.29v-12.12h-1.35c-.14.18-.33.38-.57.58"/>
        </g>
      </g>
      <g>
        <path class="cls-3" d="M0,21.25c0,11.74,9.51,21.25,21.25,21.25s21.25-9.51,21.25-21.25S32.99,0,21.25,0,0,9.52,0,21.25"/>
        <path class="cls-1" d="M16.49,14.6c-.21-.12-.42-.24-.62-.35-.29-.12-.5-.17-.64-.13-.13.03-.26.2-.37.49,0,0-2.05,5.33-2.94,7.8-.03.07-.05-.07-.06-.47,0-.1-.07-3.62-.07-3.62,0-.14-.02-.26-.03-.37-.03-.37-.22-.47-.22-.47-.72-.44-1.6-.61-1.6-.61-.26-.07-.46-.07-.58-.01-.13.06-.24.19-.33.4,0,0-2.14,4.84-2.28,5.12-.12.24-.12-.03-.12-.03.15-1.14.94-5.99.94-5.99.01-.15,0-.29-.01-.44-.02-.14-.06-.28-.12-.42-.06-.14-.14-.28-.27-.38-.83-.62-1.53-.9-1.53-.9-.27-.12-.46-.15-.57-.09-.11.06-.19.24-.24.54-.08.53-.16,1.11-.24,1.74,0,0-1.02,7.48-.69,9.42,0,0-.01.55,1.91.79,1,.13,1.76-1.28,1.76-1.28l2.02-3.66s.21,2.31.42,2.97c0,0,.26,1.52,1.38,1.78.49.11.98.22.98.22.29.07.48.07.63.02.15-.05.3-.15.37-.33,1.63-4.05,3.82-9.96,3.82-9.96,0,0,.48-1.12-.71-1.79"/>
        <path class="cls-1" d="M33.87,22.42c0,.29.14-.02.14-.02,1.57-4.32,2.94-7.8,2.94-7.8.12-.29.24-.46.37-.49.13-.03.34.01.63.13.21.11.52.25.72.38.21.13,1.01.49.53,1.69-2.1,5.33-3.27,8.66-3.27,8.66-.19.52-.36.97-.5,1.36-.08.18-.19.29-.34.34-.15.05-.37.05-.65,0-.33-.06-.96-.21-.96-.21-1.18-.29-1.38-1.81-1.38-1.81-.24-1.03-.42-2.97-.42-2.97l-2.02,3.66s-.79,1.4-1.77,1.28c-.28-.04-.92-.14-1.17-.21,0,0-.55-.13-.57-.6-.12-2.7.76-11.14.76-11.14.15-1,1.64-.36,1.64-.36.27.12.49.28.7.47.12.11.21.24.27.37.06.14.12.48.11.66-.02.24-.57,4.07-.92,6.52,0,0-.02.27.11.03l2.28-5.12c.1-.21.21-.34.33-.4.13-.06.45-.02.71.04.94.2,1.25.61,1.25.61,0,0,.28.07.46,4.92"/>
        <path class="cls-1" d="M25.18,16.12c.16.33.28.7.35,1.11.11.69.14,1.44.1,2.24-.04.81-.16,1.61-.36,2.41-.2.8-.47,1.55-.82,2.26-.35.71-.78,1.31-1.3,1.8-.35.29-.72.49-1.11.59-.39.1-.84.12-1.35.06-.34-.04-.68-.1-1.04-.18-.36-.08-.68-.2-.98-.36-.24-.13-.48-.3-.71-.51-.24-.21-.42-.45-.56-.71-.22-.44-.39-.93-.5-1.47-.11-.55-.17-1.12-.17-1.73,0-.6.06-1.22.18-1.85.12-.63.29-1.24.52-1.83.23-.6.52-1.16.86-1.69.35-.54.75-1.01,1.2-1.44.31-.25.68-.45,1.11-.58.43-.13.84-.17,1.23-.1.51.09.99.22,1.45.4.46.18.84.4,1.15.65.34.29.59.6.75.93M22.7,17.19c-.09-.34-.22-.53-.4-.59-.19-.07-.54.02-.77.25-.23.23-.46.55-.68.94-.23.4-.44.84-.63,1.32-.19.49-.35.96-.47,1.41,0,0-.44,1.69-.08,3.11.09.36.33.5.54.57.19.06.47,0,.67-.16.67-.52,1.17-1.85,1.17-1.85.46-1.31.61-2.34.61-2.34.25-1.75.04-2.67.04-2.67"/>
        <path class="cls-1" d="M19.69,36.39c-7.02.04-9.74-5-10.29-6.9-.1-.33.47-.69.85-.34,2.31,2.13,5.99,3.6,11.27,3.33,4.63-.24,7.74-.68,11.45-3.69.99-.81,1.53-.18,1.46-.06-.71,1.2-5.95,7.67-14.59,7.67h-.15Z"/>
      </g>
    </g>
  </g>
</svg>