<?xml version="1.0" encoding="UTF-8" standalone="no" ?>
<!DOCTYPE svg PUBLIC "-//W3C//DTD SVG 1.1//EN" "http://www.w3.org/Graphics/SVG/1.1/DTD/svg11.dtd">
<svg xmlns="http://www.w3.org/2000/svg" xmlns:xlink="http://www.w3.org/1999/xlink" version="1.1" width="500" height="500" viewBox="0 0 500 500" xml:space="preserve">
<desc>Created with Fabric.js 3.6.3</desc>
<defs>
</defs>
<rect x="0" y="0" width="100%" height="100%" fill="#ffffff"></rect>
<g transform="matrix(0.15288 0 0 0.15288 250.49500000000006 195.64)"  >
<g style=""   >
		<g transform="matrix(1 0 0 1 -72.80100000000007 28.58050000000003)"  >
<polygon style="stroke: none; stroke-width: 1; stroke-dasharray: none; stroke-linecap: butt; stroke-dashoffset: 0; stroke-linejoin: miter; stroke-miterlimit: 4; fill: rgb(221,62,62); fill-rule: nonzero; opacity: 1;"  points="145.11999999999998,-52.70949999999999 -144.80999999999997,6.762499999999989 -145.11999999999998,52.70949999999999 145.11999999999998,23.649500000000046 145.11999999999998,-52.70949999999999 " />
</g>
		<g transform="matrix(1 0 0 1 -96.80700000000004 -97.6445)"  >
<polygon style="stroke: none; stroke-width: 1; stroke-dasharray: none; stroke-linecap: butt; stroke-dashoffset: 0; stroke-linejoin: miter; stroke-miterlimit: 4; fill: rgb(221,62,62); fill-rule: nonzero; opacity: 1;"  points="122.869,-89.20949999999999 -122.869,43.178499999999985 -122.869,89.20949999999999 122.869,0.48750000000001137 122.869,-89.20949999999999 " />
</g>
		<g transform="matrix(1 0 0 1 -114.77250000000006 179.06950000000012)"  >
<polygon style="stroke: none; stroke-width: 1; stroke-dasharray: none; stroke-linecap: butt; stroke-dashoffset: 0; stroke-linejoin: miter; stroke-miterlimit: 4; fill: rgb(221,62,62); fill-rule: nonzero; opacity: 1;"  points="106.14250000000001,-33.45350000000002 -105.31649999999999,-54.92950000000002 -106.14250000000001,-2.065499999999986 105.7295,54.92950000000002 106.14250000000001,-33.45350000000002 " />
</g>
		<g transform="matrix(1 0 0 1 -228.9600203429676 -81.21898898067664)"  >
<path style="stroke: rgb(221,62,62); stroke-width: 2; stroke-dasharray: none; stroke-linecap: butt; stroke-dashoffset: 0; stroke-linejoin: miter; stroke-miterlimit: 10; fill: none; fill-rule: nonzero; opacity: 1;"  transform=" translate(-271.0399796570324, -418.7810110193234)" d="M 171.007 551.353 A 155.507 155.507 0 1 1 416.3 364.549" stroke-linecap="round" />
</g>
		<g transform="matrix(1 0 0 1 -205.17449999999994 82.54194627274069)"  >
<path style="stroke: rgb(221,62,62); stroke-width: 2; stroke-dasharray: none; stroke-linecap: butt; stroke-dashoffset: 0; stroke-linejoin: miter; stroke-miterlimit: 10; fill: none; fill-rule: nonzero; opacity: 1;"  transform=" translate(-294.82550000000003, -582.5419462727407)" d="M 372.182 567.876 a 155.71 155.71 0 0 1 -154.713 15.682" stroke-linecap="round" />
</g>
		<g transform="matrix(1 0 0 1 -68.64794221844593 -35.64349999999999)"  >
<path style="stroke: rgb(221,62,62); stroke-width: 2; stroke-dasharray: none; stroke-linecap: butt; stroke-dashoffset: 0; stroke-linejoin: miter; stroke-miterlimit: 10; fill: none; fill-rule: nonzero; opacity: 1;"  transform=" translate(-431.3520577815541, -464.3565)" d="M 436.323 429.88 q 0.44 5.858 0.443 11.831 a 155.086 155.086 0 0 1 -10.828 57.122" stroke-linecap="round" />
</g>
		<g transform="matrix(1 0 0 1 38.434500000000014 -169.49099999999999)"  >
<line style="stroke: rgb(108,108,224); stroke-width: 3; stroke-dasharray: none; stroke-linecap: butt; stroke-dashoffset: 0; stroke-linejoin: miter; stroke-miterlimit: 10; fill: none; fill-rule: nonzero; opacity: 1;"  x1="-12.734499999999969" y1="11.461000000000013" x2="12.734499999999969" y2="-11.461000000000013" />
</g>
		<g transform="matrix(1 0 0 1 54.16300000000001 -139.17899999999997)"  >
<line style="stroke: rgb(108,108,224); stroke-width: 3; stroke-dasharray: none; stroke-linecap: butt; stroke-dashoffset: 0; stroke-linejoin: miter; stroke-miterlimit: 10; fill: none; fill-rule: nonzero; opacity: 1;"  x1="-27.567999999999984" y1="26.286" x2="27.567999999999984" y2="-26.286" />
</g>
		<g transform="matrix(1 0 0 1 82.70599999999996 -120.57900000000001)"  >
<line style="stroke: rgb(108,108,224); stroke-width: 3; stroke-dasharray: none; stroke-linecap: butt; stroke-dashoffset: 0; stroke-linejoin: miter; stroke-miterlimit: 10; fill: none; fill-rule: nonzero; opacity: 1;"  x1="-28.233000000000004" y1="26.920000000000016" x2="28.233000000000004" y2="-26.920000000000016" />
</g>
		<g transform="matrix(1 0 0 1 114.875 -106.964)"  >
<line style="stroke: rgb(108,108,224); stroke-width: 3; stroke-dasharray: none; stroke-linecap: butt; stroke-dashoffset: 0; stroke-linejoin: miter; stroke-miterlimit: 10; fill: none; fill-rule: nonzero; opacity: 1;"  x1="-27.567999999999984" y1="26.286" x2="27.567999999999984" y2="-26.286" />
</g>
		<g transform="matrix(1 0 0 1 144.61149999999998 -92.15350000000001)"  >
<line style="stroke: rgb(108,108,224); stroke-width: 3; stroke-dasharray: none; stroke-linecap: butt; stroke-dashoffset: 0; stroke-linejoin: miter; stroke-miterlimit: 10; fill: none; fill-rule: nonzero; opacity: 1;"  x1="-24.470500000000015" y1="23.332499999999982" x2="24.470500000000015" y2="-23.332499999999982" />
</g>
		<g transform="matrix(1 0 0 1 176.1155 -77.732)"  >
<line style="stroke: rgb(108,108,224); stroke-width: 3; stroke-dasharray: none; stroke-linecap: butt; stroke-dashoffset: 0; stroke-linejoin: miter; stroke-miterlimit: 10; fill: none; fill-rule: nonzero; opacity: 1;"  x1="-23.140499999999975" y1="22.065000000000026" x2="23.140499999999975" y2="-22.065000000000026" />
</g>
		<g transform="matrix(1 0 0 1 208.005 -62.49649999999994)"  >
<line style="stroke: rgb(108,108,224); stroke-width: 3; stroke-dasharray: none; stroke-linecap: butt; stroke-dashoffset: 0; stroke-linejoin: miter; stroke-miterlimit: 10; fill: none; fill-rule: nonzero; opacity: 1;"  x1="-21.576999999999998" y1="20.573499999999996" x2="21.576999999999998" y2="-20.573499999999996" />
</g>
		<g transform="matrix(1 0 0 1 240.63549999999998 -48.198999999999984)"  >
<line style="stroke: rgb(108,108,224); stroke-width: 3; stroke-dasharray: none; stroke-linecap: butt; stroke-dashoffset: 0; stroke-linejoin: miter; stroke-miterlimit: 10; fill: none; fill-rule: nonzero; opacity: 1;"  x1="-18.275499999999965" y1="19.38300000000001" x2="18.275499999999965" y2="-19.38300000000001" />
</g>
		<g transform="matrix(1 0 0 1 235.04200000000003 46.717499999999916)"  >
<line style="stroke: rgb(108,108,224); stroke-width: 3; stroke-dasharray: none; stroke-linecap: butt; stroke-dashoffset: 0; stroke-linejoin: miter; stroke-miterlimit: 10; fill: none; fill-rule: nonzero; opacity: 1;"  x1="-20.73599999999999" y1="21.992500000000007" x2="20.73599999999999" y2="-21.992500000000007" />
</g>
		<g transform="matrix(1 0 0 1 96.28950000000003 -0.5815000000000339)"  >
<line style="stroke: rgb(108,108,224); stroke-width: 3; stroke-dasharray: none; stroke-linecap: butt; stroke-dashoffset: 0; stroke-linejoin: miter; stroke-miterlimit: 10; fill: none; fill-rule: nonzero; opacity: 1;"  x1="-21.992500000000007" y1="20.96950000000001" x2="21.992500000000007" y2="-20.96950000000001" />
</g>
		<g transform="matrix(1 0 0 1 122.15049999999991 19.768500000000046)"  >
<line style="stroke: rgb(108,108,224); stroke-width: 3; stroke-dasharray: none; stroke-linecap: butt; stroke-dashoffset: 0; stroke-linejoin: miter; stroke-miterlimit: 10; fill: none; fill-rule: nonzero; opacity: 1;"  x1="-29.88749999999999" y1="28.497499999999974" x2="29.88749999999999" y2="-28.497499999999974" />
</g>
		<g transform="matrix(1 0 0 1 159.47950000000003 29.269999999999982)"  >
<line style="stroke: rgb(108,108,224); stroke-width: 3; stroke-dasharray: none; stroke-linecap: butt; stroke-dashoffset: 0; stroke-linejoin: miter; stroke-miterlimit: 10; fill: none; fill-rule: nonzero; opacity: 1;"  x1="-28.807500000000005" y1="27.466999999999985" x2="28.807500000000005" y2="-27.466999999999985" />
</g>
		<g transform="matrix(1 0 0 1 196.41949999999997 39.283500000000004)"  >
<line style="stroke: rgb(108,108,224); stroke-width: 3; stroke-dasharray: none; stroke-linecap: butt; stroke-dashoffset: 0; stroke-linejoin: miter; stroke-miterlimit: 10; fill: none; fill-rule: nonzero; opacity: 1;"  x1="-24.240499999999997" y1="25.709500000000048" x2="24.240499999999997" y2="-25.709500000000048" />
</g>
		<g transform="matrix(1 0 0 1 25.189499999999953 164.935)"  >
<line style="stroke: rgb(108,108,224); stroke-width: 3; stroke-dasharray: none; stroke-linecap: butt; stroke-dashoffset: 0; stroke-linejoin: miter; stroke-miterlimit: 10; fill: none; fill-rule: nonzero; opacity: 1;"  x1="-30.809500000000014" y1="29.31800000000004" x2="30.809500000000014" y2="-29.31800000000004" />
</g>
		<g transform="matrix(1 0 0 1 61.81500000000011 175.692)"  >
<line style="stroke: rgb(108,108,224); stroke-width: 3; stroke-dasharray: none; stroke-linecap: butt; stroke-dashoffset: 0; stroke-linejoin: miter; stroke-miterlimit: 10; fill: none; fill-rule: nonzero; opacity: 1;"  x1="-46.99100000000004" y1="45.41700000000003" x2="46.99100000000004" y2="-45.41700000000003" />
</g>
		<g transform="matrix(1 0 0 1 113.94550000000004 168.46799999999996)"  >
<line style="stroke: rgb(108,108,224); stroke-width: 3; stroke-dasharray: none; stroke-linecap: butt; stroke-dashoffset: 0; stroke-linejoin: miter; stroke-miterlimit: 10; fill: none; fill-rule: nonzero; opacity: 1;"  x1="-43.3655" y1="41.524" x2="43.3655" y2="-41.524" />
</g>
		<g transform="matrix(1 0 0 1 171.18000000000012 159.77800000000008)"  >
<line style="stroke: rgb(108,108,224); stroke-width: 3; stroke-dasharray: none; stroke-linecap: butt; stroke-dashoffset: 0; stroke-linejoin: miter; stroke-miterlimit: 10; fill: none; fill-rule: nonzero; opacity: 1;"  x1="-35.62899999999996" y1="36.55099999999999" x2="35.62899999999996" y2="-36.55099999999999" />
</g>
		<g transform="matrix(1 0 0 1 215.19150000000002 159.46749999999997)"  >
<line style="stroke: rgb(108,108,224); stroke-width: 3; stroke-dasharray: none; stroke-linecap: butt; stroke-dashoffset: 0; stroke-linejoin: miter; stroke-miterlimit: 10; fill: none; fill-rule: nonzero; opacity: 1;"  x1="-22.64549999999997" y1="23.231499999999983" x2="22.64549999999997" y2="-23.231499999999983" />
</g>
		<g transform="matrix(1 0 0 1 262.00800000000004 -25.417)"  >
<line style="stroke: rgb(108,108,224); stroke-width: 3; stroke-dasharray: none; stroke-linecap: butt; stroke-dashoffset: 0; stroke-linejoin: miter; stroke-miterlimit: 10; fill: none; fill-rule: nonzero; opacity: 1;"  x1="-9.293000000000006" y1="8.712000000000018" x2="9.293000000000006" y2="-8.712000000000018" />
</g>
		<g transform="matrix(1 0 0 1 261.3885 66.85149999999999)"  >
<line style="stroke: rgb(108,108,224); stroke-width: 3; stroke-dasharray: none; stroke-linecap: butt; stroke-dashoffset: 0; stroke-linejoin: miter; stroke-miterlimit: 10; fill: none; fill-rule: nonzero; opacity: 1;"  x1="-9.912500000000023" y1="9.292500000000018" x2="9.912500000000023" y2="-9.292500000000018" />
</g>
		<g transform="matrix(1 0 0 1 -0.04450000000008458 -98.77000000000001)"  >
<path style="stroke: none; stroke-width: 1; stroke-dasharray: none; stroke-linecap: butt; stroke-dashoffset: 0; stroke-linejoin: miter; stroke-miterlimit: 4; fill: rgb(0,0,0); fill-rule: nonzero; opacity: 1;"  transform=" translate(-499.9554999999999, -401.23)" d="M 172.855 499.325 l 43.937 -24.685 l 43.971 -24.622 L 348.829 401 l 88.193 -48.79 c 29.415 -16.232 58.776 -32.561 88.249 -48.687 l 0.708 -0.388 l 0.7 0.388 l 75.209 41.617 l 37.605 20.809 l 37.547 20.912 l 75.074 41.863 l 74.942 42.1 l -75.6 -40.91 L 675.99 388.766 l -37.722 -20.594 l -37.666 -20.7 l -75.331 -41.4 h 1.408 c -29.381 16.295 -58.872 32.387 -88.311 48.576 L 350 403.125 l -88.494 48.244 L 217.2 475.379 Z" stroke-linecap="round" />
</g>
		<g transform="matrix(1 0 0 1 69.33849999999995 -30.301500000000033)"  >
<path style="stroke: none; stroke-width: 1; stroke-dasharray: none; stroke-linecap: butt; stroke-dashoffset: 0; stroke-linejoin: miter; stroke-miterlimit: 4; fill: rgb(0,0,0); fill-rule: nonzero; opacity: 1;"  transform=" translate(-569.3385, -469.69849999999997)" d="M 223.6 507.857 l 302 -112.389 l 0.378 -0.141 l 0.383 0.144 l 97.366 36.589 l 48.681 18.3 l 24.332 9.172 l 24.3 9.246 q 24.315 9.216 48.576 18.577 l 48.548 18.651 l 48.488 18.807 l 48.425 18.976 l -0.106 0.281 l -48.839 -17.885 l -48.774 -18.053 l -48.715 -18.21 q -24.363 -9.092 -48.687 -18.284 l -24.327 -9.184 l -24.3 -9.259 L 622.75 434.634 L 525.591 397.5 l 0.76 0 L 223.707 508.139 Z" stroke-linecap="round" />
</g>
		<g transform="matrix(1 0 0 1 -13.173000000000059 12.750999999999948)"  >
<polygon style="stroke: none; stroke-width: 1; stroke-dasharray: none; stroke-linecap: butt; stroke-dashoffset: 0; stroke-linejoin: miter; stroke-miterlimit: 4; fill: rgb(0,0,0); fill-rule: nonzero; opacity: 1;"  points="-346.92499999999995,46.547 -292.0419999999999,34.61499999999998 -237.13499999999993,22.79899999999995 -182.20599999999996,11.08699999999996 -127.26399999999995,-0.5660000000000025 -17.335999999999956,-23.654000000000025 37.64900000000006,-35.09700000000001 92.64800000000008,-46.47400000000002 93.00000000000006,-46.547 93.33800000000002,-46.43899999999999 156.80400000000003,-26.198000000000008 220.2100000000001,-5.770999999999987 283.5950000000001,14.724999999999994 346.925,35.39600000000004 283.25500000000005,15.797999999999973 219.64000000000004,-3.974000000000018 156.04800000000006,-23.815000000000026 92.51400000000007,-43.84200000000001 93.20400000000001,-43.80699999999999 38.240000000000066,-32.26200000000003 -16.737999999999943,-20.782999999999987 -126.73499999999996,1.9719999999999516 -181.75699999999995,13.240999999999957 -236.79099999999994,24.450000000000017 -291.84599999999995,35.55699999999999 -346.92499999999995,46.547 " />
</g>
		<g transform="matrix(1 0 0 1 66.8655 78.0745)"  >
<path style="stroke: none; stroke-width: 1; stroke-dasharray: none; stroke-linecap: butt; stroke-dashoffset: 0; stroke-linejoin: miter; stroke-miterlimit: 4; fill: rgb(0,0,0); fill-rule: nonzero; opacity: 1;"  transform=" translate(-566.8655, -578.0745)" d="M 193.9 585.907 l 385.224 -40.725 l 0.169 -0.018 l 0.174 0.031 l 90.185 15.844 q 45.092 7.929 90.135 16.129 l 90.059 16.552 l 45.007 8.4 l 44.978 8.565 l -0.053 0.3 l -45.161 -7.543 l -45.132 -7.7 L 759.27 580.076 q -45.088 -7.944 -90.142 -16.085 L 579.036 547.62 l 0.343 0.013 L 193.934 586.205 Z" stroke-linecap="round" />
</g>
		<g transform="matrix(1 0 0 1 -40.93150000000003 122.09449999999987)"  >
<path style="stroke: none; stroke-width: 1; stroke-dasharray: none; stroke-linecap: butt; stroke-dashoffset: 0; stroke-linejoin: miter; stroke-miterlimit: 4; fill: rgb(0,0,0); fill-rule: nonzero; opacity: 1;"  transform=" translate(-459.0685, -622.0944999999999)" d="M 120.816 603.4 l 46.66 4.064 l 46.651 4.142 l 93.28 8.532 l 93.252 8.813 c 31.084 2.947 62.17 5.856 93.24 8.942 l -0.244 0 l 75.9 -5.454 l 37.95 -2.719 l 37.958 -2.6 l 75.919 -5.173 l 75.939 -4.912 l -75.841 6.239 l -75.86 5.977 l -37.932 2.973 l -37.939 2.856 l -75.881 5.7 l -0.119 0.009 l -0.126 -0.012 c -31.087 -2.9 -62.158 -5.982 -93.232 -9.023 L 307.17 622.6 l -93.192 -9.434 l -46.585 -4.84 Z" stroke-linecap="round" />
</g>
		<g transform="matrix(1 0 0 1 20.399 184.6900000000001)"  >
<path style="stroke: none; stroke-width: 1; stroke-dasharray: none; stroke-linecap: butt; stroke-dashoffset: 0; stroke-linejoin: miter; stroke-miterlimit: 4; fill: rgb(0,0,0); fill-rule: nonzero; opacity: 1;"  transform=" translate(-520.399, -684.69)" d="M 160.465 640.573 L 243.342 661.6 l 82.807 21.29 l 41.4 10.664 l 41.368 10.781 L 491.652 725.9 l -0.682 -0.014 c 32.4 -7.217 64.849 -14.217 97.276 -21.314 l 97.3 -21.2 l 97.359 -20.939 l 48.706 -10.346 l 48.722 -10.273 l -48.54 11.1 l -48.557 11.027 L 686.07 685.746 L 588.845 707.3 c -32.414 7.152 -64.808 14.4 -97.249 21.432 l -0.347 0.075 l -0.336 -0.089 l -82.672 -21.8 l -41.337 -10.9 L 325.6 684.989 L 243 662.913 Z" stroke-linecap="round" />
</g>
		<g transform="matrix(1 0 0 1 -220.589 -0.6755000000000848)"  >
<line style="stroke: rgb(0,0,0); stroke-width: 3; stroke-dasharray: none; stroke-linecap: butt; stroke-dashoffset: 0; stroke-linejoin: miter; stroke-miterlimit: 10; fill: none; fill-rule: nonzero; opacity: 1;"  x1="0" y1="-240.3695" x2="0" y2="240.3695" />
</g>
		<g transform="matrix(1 0 0 1 270.371 52.603000000000065)"  >
<line style="stroke: rgb(0,0,0); stroke-width: 3; stroke-dasharray: none; stroke-linecap: butt; stroke-dashoffset: 0; stroke-linejoin: miter; stroke-miterlimit: 10; fill: none; fill-rule: nonzero; opacity: 1;"  x1="0" y1="-206.916" x2="0" y2="206.916" />
</g>
		<g transform="matrix(1 0 0 1 -7.478000000000009 -227.725)"  >
<line style="stroke: rgb(0,0,0); stroke-width: 3; stroke-dasharray: none; stroke-linecap: butt; stroke-dashoffset: 0; stroke-linejoin: miter; stroke-miterlimit: 10; fill: none; fill-rule: nonzero; opacity: 1;"  x1="0" y1="-49.251000000000005" x2="0" y2="49.251000000000005" />
</g>
		<g transform="matrix(1 0 0 1 -7.478000000000009 -53.33299999999994)"  >
<line style="stroke: rgb(0,0,0); stroke-width: 3; stroke-dasharray: none; stroke-linecap: butt; stroke-dashoffset: 0; stroke-linejoin: miter; stroke-miterlimit: 10; fill: none; fill-rule: nonzero; opacity: 1;"  x1="0" y1="-39.029000000000025" x2="0" y2="39.029000000000025" />
</g>
		<g transform="matrix(1 0 0 1 116.11400000000003 91.32199999999995)"  >
<line style="stroke: rgb(0,0,0); stroke-width: 3; stroke-dasharray: none; stroke-linecap: butt; stroke-dashoffset: 0; stroke-linejoin: miter; stroke-miterlimit: 10; fill: none; fill-rule: nonzero; opacity: 1;"  x1="0" y1="-39.339" x2="0" y2="39.339" />
</g>
		<g transform="matrix(1 0 0 1 114.40999999999997 -46.42499999999998)"  >
<line style="stroke: rgb(0,0,0); stroke-width: 3; stroke-dasharray: none; stroke-linecap: butt; stroke-dashoffset: 0; stroke-linejoin: miter; stroke-miterlimit: 10; fill: none; fill-rule: nonzero; opacity: 1;"  x1="0" y1="-24.873999999999995" x2="0" y2="24.873999999999995" />
</g>
		<g transform="matrix(1 0 0 1 27.524 93.4905)"  >
<line style="stroke: rgb(0,0,0); stroke-width: 3; stroke-dasharray: none; stroke-linecap: butt; stroke-dashoffset: 0; stroke-linejoin: miter; stroke-miterlimit: 10; fill: none; fill-rule: nonzero; opacity: 1;"  x1="0" y1="-40.887500000000045" x2="0" y2="40.887500000000045" />
</g>
		<g transform="matrix(1 0 0 1 74.452 -226.796)"  >
<line style="stroke: rgb(0,0,0); stroke-width: 3; stroke-dasharray: none; stroke-linecap: butt; stroke-dashoffset: 0; stroke-linejoin: miter; stroke-miterlimit: 10; fill: none; fill-rule: nonzero; opacity: 1;"  x1="0" y1="-55.13599999999998" x2="0" y2="55.13599999999998" />
</g>
		<g transform="matrix(1 0 0 1 26.595000000000027 255.18200000000007)"  >
<line style="stroke: rgb(0,0,0); stroke-width: 3; stroke-dasharray: none; stroke-linecap: butt; stroke-dashoffset: 0; stroke-linejoin: miter; stroke-miterlimit: 10; fill: none; fill-rule: nonzero; opacity: 1;"  x1="0" y1="-36.55099999999999" x2="0" y2="36.55099999999999" />
</g>
		<g transform="matrix(1 0 0 1 -187.44600000000003 160.39699999999988)"  >
<line style="stroke: rgb(0,0,0); stroke-width: 3; stroke-dasharray: none; stroke-linecap: butt; stroke-dashoffset: 0; stroke-linejoin: miter; stroke-miterlimit: 10; fill: none; fill-rule: nonzero; opacity: 1;"  x1="0" y1="-53.27799999999996" x2="0" y2="53.27799999999996" />
</g>
		<g transform="matrix(1 0 0 1 -7.427000000000021 162.25600000000014)"  >
<line style="stroke: rgb(0,0,0); stroke-width: 3; stroke-dasharray: none; stroke-linecap: butt; stroke-dashoffset: 0; stroke-linejoin: miter; stroke-miterlimit: 10; fill: none; fill-rule: nonzero; opacity: 1;"  x1="0" y1="-105.93599999999998" x2="0" y2="105.93599999999998" />
</g>
		<g transform="matrix(1 0 0 1 237.87300000000005 175.8845)"  >
<line style="stroke: rgb(0,0,0); stroke-width: 3; stroke-dasharray: none; stroke-linecap: butt; stroke-dashoffset: 0; stroke-linejoin: miter; stroke-miterlimit: 10; fill: none; fill-rule: nonzero; opacity: 1;"  x1="0" y1="-70.00450000000001" x2="0" y2="70.00450000000001" />
</g>
		<g transform="matrix(1 0 0 1 73.07100000000003 1.8029999999999688)"  >
<line style="stroke: rgb(0,0,0); stroke-width: 3; stroke-dasharray: none; stroke-linecap: butt; stroke-dashoffset: 0; stroke-linejoin: miter; stroke-miterlimit: 10; fill: none; fill-rule: nonzero; opacity: 1;"  x1="0" y1="-87.97" x2="0" y2="87.97" />
</g>
		<g transform="matrix(1 0 0 1 25.975000000000023 -140.684)"  >
<line style="stroke: rgb(0,0,0); stroke-width: 3; stroke-dasharray: none; stroke-linecap: butt; stroke-dashoffset: 0; stroke-linejoin: miter; stroke-miterlimit: 10; fill: none; fill-rule: nonzero; opacity: 1;"  x1="0" y1="-118.946" x2="0" y2="118.946" />
</g>
</g>
</g>
<g transform="matrix(1,0,0,1,255,263.61197414965994)" style=""  ><path fill="#000000" opacity="1" d="M-43.58 2.40L-43.58-3.90Q-43.58-4.79-44.18-5.39Q-44.79-6.00-45.67-6.00L-45.67-6.00L-51.98-6.00Q-52.86-6.00-53.47-5.39Q-54.08-4.79-54.08-3.90L-54.08-3.90L-54.08 2.40Q-54.08 3.28-53.47 3.89Q-52.86 4.50-51.98 4.50L-51.98 4.50L-45.67 4.50Q-44.79 4.50-44.18 3.89Q-43.58 3.28-43.58 2.40L-43.58 2.40ZM-41.48-3.90L-41.48 2.40Q-41.48 3.26-41.81 4.02Q-42.15 4.79-42.71 5.36Q-43.28 5.92-44.05 6.26Q-44.81 6.60-45.67 6.60L-45.67 6.60L-51.98 6.60Q-52.86 6.60-53.62 6.27Q-54.39 5.95-54.96 5.38Q-55.52 4.81-55.85 4.05Q-56.17 3.28-56.17 2.40L-56.17 2.40L-56.17-3.90Q-56.17-4.76-55.84-5.53Q-55.50-6.30-54.94-6.86Q-54.37-7.43-53.60-7.77Q-52.84-8.10-51.98-8.10L-51.98-8.10L-45.67-8.10Q-44.84-8.10-44.08-7.77Q-43.32-7.43-42.75-6.86Q-42.17-6.30-41.82-5.53Q-41.48-4.76-41.48-3.90L-41.48-3.90Z"/><path fill="#000000" opacity="1" d=""/><path fill="#000000" opacity="1" d="M-25.10 0.30L-25.10-1.80L-16.70-1.80L-16.70 2.40Q-16.70 3.24-17.02 3.99Q-17.35 4.75-17.91 5.33Q-18.48 5.90-19.25 6.25Q-20.01 6.60-20.90 6.60L-20.90 6.60L-27.20 6.60Q-28.04 6.60-28.80 6.27Q-29.57 5.95-30.15 5.38Q-30.72 4.81-31.06 4.05Q-31.40 3.28-31.40 2.40L-31.40 2.40L-31.40-3.90Q-31.40-4.74-31.07-5.50Q-30.74-6.26-30.18-6.83Q-29.61-7.41-28.84-7.76Q-28.08-8.10-27.20-8.10L-27.20-8.10L-20.90-8.10Q-20.06-8.10-19.30-7.78Q-18.54-7.45-17.98-6.89Q-17.41-6.32-17.06-5.55Q-16.72-4.79-16.70-3.90L-16.70-3.90L-18.80-3.90Q-18.80-4.79-19.40-5.39Q-20.01-6.00-20.90-6.00L-20.90-6.00L-27.20-6.00Q-28.08-6.00-28.69-5.39Q-29.30-4.79-29.30-3.90L-29.30-3.90L-29.30 2.40Q-29.30 3.28-28.69 3.89Q-28.08 4.50-27.20 4.50L-27.20 4.50L-20.90 4.50Q-20.01 4.50-19.40 3.89Q-18.80 3.28-18.80 2.40L-18.80 2.40L-18.80 0.30L-25.10 0.30Z"/><path fill="#000000" opacity="1" d=""/><path fill="#000000" opacity="1" d="M7.24-6.00L0.94-6.00L0.94 6.60L-1.16 6.60L-1.16-6.00L-7.46-6.00L-7.46-8.10L7.24-8.10L7.24-6.00Z"/><path fill="#000000" opacity="1" d=""/><path fill="#000000" opacity="1" d="M18.79-6.00L18.79-1.80L29.29-1.80L29.29 0.30L18.79 0.30L18.79 4.50L31.39 4.50L31.39 6.60L16.69 6.60L16.69-8.10L31.39-8.10L31.39-6.00L18.79-6.00Z"/><path fill="#000000" opacity="1" d=""/><path fill="#000000" opacity="1" d="M54.07-1.80L54.07-3.90Q54.07-4.79 53.47-5.39Q52.86-6.00 51.97-6.00L51.97-6.00L43.57-6.00L43.57 0.30L51.97 0.30Q52.86 0.30 53.47-0.31Q54.07-0.92 54.07-1.80L54.07-1.80ZM56.17 6.60L54.68 6.60L50.48 2.40L43.57 2.40L43.57 6.60L41.47 6.60L41.47-8.10L51.97-8.10Q52.79-8.10 53.56-7.78Q54.33-7.45 54.90-6.89Q55.48-6.32 55.83-5.55Q56.17-4.79 56.17-3.90L56.17-3.90L56.17-1.80Q56.17-1.13 55.96-0.51Q55.75 0.11 55.37 0.63Q54.98 1.16 54.44 1.57Q53.91 1.98 53.26 2.19L53.26 2.19L56.17 5.11L56.17 6.60Z"/></g></svg>